<?xml version="1.0" standalone="no"?>
<!DOCTYPE svg PUBLIC "-//W3C//DTD SVG 20010904//EN"
 "http://www.w3.org/TR/2001/REC-SVG-20010904/DTD/svg10.dtd">
<svg version="1.0" xmlns="http://www.w3.org/2000/svg"
 width="1536.000000pt" height="1024.000000pt" viewBox="0 0 1536.000000 1024.000000"
 preserveAspectRatio="xMidYMid meet">

<g transform="translate(0.000000,1024.000000) scale(0.100000,-0.100000)"
fill="#000000" stroke="none">
<path d="M5351 9315 c-1 -11 -6 -27 -11 -35 -9 -13 -11 -13 -20 0 -8 13 -10
13 -10 1 0 -8 -17 -30 -37 -49 l-38 -34 -12 48 c-11 43 -12 45 -8 10 5 -43 -5
-67 -44 -110 l-26 -28 32 16 c41 20 52 20 70 -1 11 -14 13 -14 10 -3 -2 8 -13
19 -25 25 -12 5 -22 13 -22 16 0 7 138 89 151 89 4 0 11 5 15 12 4 6 3 8 -4 4
-7 -4 -12 6 -15 26 -2 18 -5 24 -6 13z"/>
<path d="M5447 9284 c-7 -8 3 -34 13 -34 5 0 8 9 7 20 -1 20 -8 25 -20 14z"/>
<path d="M5362 9238 c-35 -18 -40 -24 -25 -29 28 -11 33 -10 27 6 -4 10 3 18
20 25 14 5 26 12 26 15 0 7 0 7 -48 -17z"/>
<path d="M4812 8940 c0 -14 2 -19 5 -12 2 6 2 18 0 25 -3 6 -5 1 -5 -13z"/>
<path d="M4351 8916 c-16 -19 -11 -29 8 -17 7 5 12 14 9 21 -3 9 -8 7 -17 -4z"/>
<path d="M5098 8913 c7 -3 16 -2 19 1 4 3 -2 6 -13 5 -11 0 -14 -3 -6 -6z"/>
<path d="M4844 8792 c-6 -4 -19 -23 -29 -42 l-17 -35 31 35 c35 41 42 61 15
42z"/>
<path d="M4542 8694 c-17 -18 -12 -36 6 -25 8 5 12 15 10 24 -3 13 -5 13 -16
1z"/>
<path d="M4780 8690 c-6 -11 -7 -20 -2 -20 6 0 12 9 15 20 3 11 3 20 1 20 -2
0 -8 -9 -14 -20z"/>
<path d="M4620 8649 c-14 -6 -35 -20 -47 -31 -13 -12 -26 -18 -30 -14 -4 4 -2
10 4 14 8 5 7 11 -3 19 -15 15 -27 2 -18 -20 3 -8 1 -31 -4 -51 -6 -20 -9 -36
-7 -36 2 0 20 22 39 49 26 36 49 54 79 64 23 9 35 15 27 16 -8 0 -26 -5 -40
-10z"/>
<path d="M6118 8593 c7 -3 16 -2 19 1 4 3 -2 6 -13 5 -11 0 -14 -3 -6 -6z"/>
<path d="M7284 8575 c-10 -8 -14 -14 -9 -14 6 0 19 6 29 14 11 8 15 15 10 15
-6 0 -19 -7 -30 -15z"/>
<path d="M7113 8530 c-2 -22 -1 -40 1 -40 14 0 138 61 133 66 -3 3 -23 -4 -45
-15 l-40 -20 -16 24 c-23 35 -31 31 -33 -15z"/>
<path d="M7260 8540 c-13 -8 -13 -10 2 -10 9 0 20 5 23 10 8 13 -5 13 -25 0z"/>
<path d="M7180 8500 c-8 -5 -10 -10 -5 -10 6 0 17 5 25 10 8 5 11 10 5 10 -5
0 -17 -5 -25 -10z"/>
<path d="M7117 8480 c-21 -4 -43 -13 -50 -20 -10 -10 -7 -10 12 0 18 9 29 9
50 0 14 -6 23 -8 19 -4 -4 4 -3 13 3 21 6 7 10 12 8 12 -2 -1 -21 -5 -42 -9z"/>
<path d="M6694 8458 c-11 -13 -32 -40 -48 -60 l-27 -38 38 -2 c21 -1 52 -2 68
-3 17 -1 41 2 55 6 18 5 10 7 -30 8 l-55 1 30 21 30 21 -26 -4 c-23 -4 -27 -1
-27 21 0 14 5 32 10 39 18 21 2 13 -18 -10z"/>
<path d="M7698 8423 c7 -3 16 -2 19 1 4 3 -2 6 -13 5 -11 0 -14 -3 -6 -6z"/>
<path d="M2155 8390 c3 -5 8 -10 11 -10 2 0 4 5 4 10 0 6 -5 10 -11 10 -5 0
-7 -4 -4 -10z"/>
<path d="M2176 8335 c6 -42 11 -52 19 -43 3 2 -2 22 -10 44 l-15 39 6 -40z"/>
<path d="M2241 8354 c0 -11 3 -14 6 -6 3 7 2 16 -1 19 -3 4 -6 -2 -5 -13z"/>
<path d="M6585 8350 c3 -5 8 -10 11 -10 2 0 4 5 4 10 0 6 -5 10 -11 10 -5 0
-7 -4 -4 -10z"/>
<path d="M7155 8355 c23 -8 83 -10 79 -3 -3 4 -24 8 -47 7 -23 0 -37 -2 -32
-4z"/>
<path d="M6616 8341 c-1 -3 0 -17 4 -31 4 -17 8 -21 14 -12 4 7 12 10 17 7 5
-4 9 1 9 11 0 14 7 16 47 11 26 -3 40 -1 32 3 -18 10 -119 19 -123 11z"/>
<path d="M6770 8330 c0 -5 5 -10 11 -10 5 0 7 5 4 10 -3 6 -8 10 -11 10 -2 0
-4 -4 -4 -10z"/>
<path d="M7682 8249 c-23 -9 -23 -9 19 -49 44 -40 59 -48 59 -30 0 6 -6 10
-12 10 -9 0 -8 4 2 10 13 8 12 11 -7 16 -15 4 -20 12 -18 30 2 26 -6 28 -43
13z"/>
<path d="M2220 8231 c0 -5 7 -15 17 -22 15 -13 15 -12 4 9 -12 23 -21 28 -21
13z"/>
<path d="M7626 8189 c-9 -23 -15 -43 -13 -46 2 -2 10 10 17 27 14 33 40 41 40
11 0 -13 8 -21 23 -23 12 -2 21 -9 19 -16 -1 -8 2 -11 8 -7 6 4 19 1 28 -6 17
-13 -45 48 -85 84 -20 17 -21 17 -37 -24z"/>
<path d="M7098 8203 c7 -3 16 -2 19 1 4 3 -2 6 -13 5 -11 0 -14 -3 -6 -6z"/>
<path d="M5615 8180 c-10 -11 -16 -22 -13 -25 3 -3 13 6 22 20 20 30 16 32 -9
5z"/>
<path d="M7218 8183 c7 -3 16 -2 19 1 4 3 -2 6 -13 5 -11 0 -14 -3 -6 -6z"/>
<path d="M2251 8133 c1 -27 5 -73 9 -103 7 -47 8 -41 7 48 0 56 -4 102 -9 102
-4 0 -8 -21 -7 -47z"/>
<path d="M7012 8133 l-63 -36 27 -28 c15 -16 32 -29 38 -29 6 0 0 7 -12 16
-20 14 -33 42 -13 30 13 -9 72 17 67 30 -2 6 2 21 10 33 19 27 21 27 -54 -16z"/>
<path d="M6018 8143 c7 -3 16 -2 19 1 4 3 -2 6 -13 5 -11 0 -14 -3 -6 -6z"/>
<path d="M6070 8121 c14 -11 33 -23 43 -27 29 -9 19 -30 -22 -49 l-40 -17 29
-25 c25 -20 33 -22 51 -13 16 9 20 9 14 0 -8 -13 36 9 46 24 4 5 12 5 19 1 9
-5 11 -4 6 4 -5 7 -17 9 -29 5 -21 -6 -21 -6 -3 8 18 14 18 15 -9 22 l-28 7
24 25 23 25 -36 -6 c-26 -4 -46 0 -74 16 -38 21 -39 21 -14 0z"/>
<path d="M7790 8126 c0 -2 8 -10 18 -17 15 -13 16 -12 3 4 -13 16 -21 21 -21
13z"/>
<path d="M6885 8090 c-36 -5 -40 -9 -56 -53 -10 -26 -13 -50 -8 -53 5 -3 9 2
9 11 0 9 7 30 16 47 15 28 19 30 56 25 29 -4 52 -17 81 -44 36 -34 38 -35 20
-8 -43 61 -74 81 -118 75z"/>
<path d="M2192 8045 c0 -16 2 -22 5 -12 2 9 2 23 0 30 -3 6 -5 -1 -5 -18z"/>
<path d="M6005 8040 c3 -5 14 -10 23 -10 15 0 15 2 2 10 -20 13 -33 13 -25 0z"/>
<path d="M2190 8003 c0 -5 9 -19 20 -33 l20 -25 -11 33 c-10 28 -29 45 -29 25z"/>
<path d="M6029 7983 c-6 -15 -13 -41 -15 -58 -3 -21 0 -17 12 15 9 25 18 46
19 48 2 2 15 -4 29 -13 36 -24 33 -14 -4 13 l-30 23 -11 -28z"/>
<path d="M6124 7971 c7 -11 46 -35 46 -28 0 3 -12 12 -26 22 -15 9 -23 12 -20
6z"/>
<path d="M2272 7930 c0 -19 2 -27 5 -17 2 9 2 25 0 35 -3 9 -5 1 -5 -18z"/>
<path d="M6116 7938 c3 -7 29 -28 57 -46 l52 -32 -50 45 c-51 45 -69 55 -59
33z"/>
<path d="M2270 7885 c0 -10 73 -169 87 -190 26 -39 12 5 -27 86 -22 46 -40 89
-40 96 0 7 -4 13 -10 13 -5 0 -10 -2 -10 -5z"/>
<path d="M2370 7661 c0 -5 5 -13 10 -16 6 -3 10 -2 10 4 0 5 -4 13 -10 16 -5
3 -10 2 -10 -4z"/>
<path d="M2390 7621 c0 -6 4 -13 10 -16 6 -3 7 1 4 9 -7 18 -14 21 -14 7z"/>
<path d="M4050 7619 c0 -5 5 -7 10 -4 6 3 10 8 10 11 0 2 -4 4 -10 4 -5 0 -10
-5 -10 -11z"/>
<path d="M4075 7575 c-16 -13 -37 -24 -46 -25 -9 0 -22 -14 -29 -30 -7 -17
-26 -38 -41 -46 -39 -20 -36 -24 9 -13 70 16 101 12 112 -16 10 -27 24 -32 36
-13 4 7 3 8 -4 4 -7 -4 -12 -3 -12 3 0 5 5 13 10 16 16 10 12 65 -5 70 -50 16
-51 17 -20 28 35 11 55 26 55 38 0 17 -35 9 -65 -16z m-35 -70 c0 -8 -4 -15
-8 -15 -5 0 -9 7 -9 15 0 8 4 15 9 15 4 0 8 -7 8 -15z m68 -20 c0 -21 -3 -23
-19 -14 -20 10 -24 21 -12 32 14 15 31 6 31 -18z"/>
<path d="M2158 7503 c6 -2 18 -2 25 0 6 3 1 5 -13 5 -14 0 -19 -2 -12 -5z"/>
<path d="M2282 7490 c0 -14 2 -19 5 -12 2 6 2 18 0 25 -3 6 -5 1 -5 -13z"/>
<path d="M2210 7481 c0 -5 7 -11 15 -15 8 -3 15 -1 15 3 0 5 -7 11 -15 15 -8
3 -15 1 -15 -3z"/>
<path d="M2290 7451 c0 -6 4 -13 10 -16 6 -3 7 1 4 9 -7 18 -14 21 -14 7z"/>
<path d="M2300 7413 c8 -4 44 -29 79 -57 36 -28 62 -45 58 -39 -13 21 -125
103 -139 102 -9 0 -9 -2 2 -6z"/>
<path d="M4208 7343 c-5 -19 -2 -23 17 -23 12 0 29 8 36 18 11 14 11 15 -1 5
-20 -18 -38 -16 -42 5 -3 14 -5 13 -10 -5z"/>
<path d="M4470 7305 c0 -2 4 -15 10 -29 6 -17 6 -35 0 -51 -9 -22 -7 -25 15
-25 25 0 33 14 15 25 -16 10 -12 21 13 33 l22 11 -24 0 c-16 1 -21 6 -18 15 3
8 -2 16 -14 19 -10 3 -19 4 -19 2z"/>
<path d="M4266 7254 c-5 -17 -2 -32 9 -43 17 -20 20 -72 4 -88 -8 -8 -7 -16 2
-30 15 -24 5 -86 -17 -104 -8 -7 -20 -21 -26 -32 -10 -19 -9 -19 13 -3 29 20
65 21 77 1 7 -14 13 -13 53 4 24 11 39 21 33 21 -6 0 -9 18 -8 43 2 45 -10 69
-31 61 -7 -3 -16 -1 -20 5 -3 6 1 11 10 11 23 0 14 19 -18 38 -24 15 -29 15
-37 2 -9 -13 -10 -13 -10 0 0 28 17 43 40 37 13 -3 28 0 35 7 11 10 6 15 -22
25 -19 7 -37 10 -40 7 -12 -12 -41 25 -36 45 3 10 3 19 0 19 -3 0 -8 -12 -11
-26z m64 -158 c0 -2 -7 -9 -15 -16 -12 -10 -15 -10 -15 4 0 9 7 16 15 16 8 0
15 -2 15 -4z m60 -43 c0 -3 -11 -14 -25 -25 -15 -12 -25 -30 -25 -45 0 -15 -3
-23 -7 -19 -5 4 -8 13 -8 19 0 7 -10 11 -22 11 -21 -1 -21 0 -8 26 8 15 12 30
10 34 -3 3 -2 4 1 2 3 -2 17 -1 32 3 26 8 52 4 52 -6z"/>
<path d="M4465 7180 c-4 -6 -19 -10 -36 -10 -17 0 -29 -5 -29 -13 0 -17 21
-37 39 -37 8 0 23 -8 34 -17 20 -17 20 -17 14 0 -5 14 -2 20 13 24 11 3 20 8
20 12 0 14 -49 50 -55 41z"/>
<path d="M2480 7140 c0 -3 18 -23 40 -45 21 -21 37 -41 35 -45 -3 -4 9 -10 25
-14 35 -7 40 -26 7 -26 -12 0 -29 -9 -37 -20 -13 -18 -25 -21 -83 -19 -37 1
-70 -1 -74 -4 -3 -4 14 -7 40 -7 25 0 53 -3 62 -6 14 -6 13 -10 -7 -32 -30
-35 3 -9 50 38 26 27 50 40 81 45 l44 7 -49 29 c-28 15 -69 46 -92 67 -23 21
-42 36 -42 32z"/>
<path d="M4540 7129 c0 -5 5 -7 10 -4 6 3 10 8 10 11 0 2 -4 4 -10 4 -5 0 -10
-5 -10 -11z"/>
<path d="M4438 7068 c12 -12 24 -19 27 -16 8 7 -23 38 -38 38 -6 0 -2 -10 11
-22z"/>
<path d="M4480 7030 c0 -5 9 -10 21 -10 11 0 17 5 14 10 -3 6 -13 10 -21 10
-8 0 -14 -4 -14 -10z"/>
<path d="M4445 7021 c-6 -11 9 -23 19 -14 9 9 7 23 -3 23 -6 0 -12 -4 -16 -9z"/>
<path d="M4657 6980 c-3 -11 -1 -20 4 -20 5 0 9 9 9 20 0 11 -2 20 -4 20 -2 0
-6 -9 -9 -20z"/>
<path d="M3300 6740 c6 -11 13 -20 16 -20 2 0 0 9 -6 20 -6 11 -13 20 -16 20
-2 0 0 -9 6 -20z"/>
<path d="M3375 6640 c3 -5 11 -10 16 -10 6 0 7 5 4 10 -3 6 -11 10 -16 10 -6
0 -7 -4 -4 -10z"/>
<path d="M3140 6410 c-14 -4 -40 -8 -59 -9 l-34 -1 22 -24 22 -24 24 24 c22
22 45 32 45 19 0 -3 -7 -17 -16 -30 -15 -22 -15 -25 -1 -25 9 0 18 8 21 18 2
9 7 27 11 40 7 23 4 24 -35 12z"/>
<path d="M2955 6400 c-4 -6 8 -10 29 -10 20 0 36 5 36 10 0 6 -13 10 -29 10
-17 0 -33 -4 -36 -10z"/>
<path d="M3099 6233 c-13 -16 -12 -17 4 -4 9 7 17 15 17 17 0 8 -8 3 -21 -13z"/>
<path d="M1604 6083 c3 -4 1 -12 -5 -19 -16 -19 4 -23 23 -3 15 16 15 17 -4
22 -11 3 -17 3 -14 0z"/>
<path d="M2434 6023 c3 -20 1 -33 -5 -33 -6 0 -17 -7 -25 -15 -13 -12 -13 -15
-2 -15 8 0 19 5 26 12 8 8 15 8 25 -1 16 -13 50 -4 41 10 -3 5 -13 8 -22 7
-11 -2 -21 9 -30 32 l-13 35 5 -32z"/>
<path d="M1350 5990 c-8 -5 -10 -10 -5 -10 6 0 17 5 25 10 8 5 11 10 5 10 -5
0 -17 -5 -25 -10z"/>
<path d="M1396 5975 c-11 -8 -29 -15 -40 -15 -12 0 -28 -5 -36 -11 -11 -8 -8
-9 14 -4 19 4 32 2 37 -7 7 -10 9 -9 9 5 0 9 4 17 8 17 5 0 17 7 28 15 10 8
15 14 9 14 -5 0 -19 -6 -29 -14z"/>
<path d="M2327 5933 c-3 -3 -3 -11 0 -19 3 -8 0 -14 -6 -14 -6 0 -11 -7 -11
-16 0 -9 -5 -12 -12 -8 -9 5 -9 3 0 -7 11 -12 15 -11 27 6 8 11 19 25 25 32 5
7 10 14 10 17 0 7 -28 15 -33 9z"/>
<path d="M2456 5932 c-3 -6 -1 -14 5 -17 15 -10 25 3 12 16 -7 7 -13 7 -17 1z"/>
<path d="M2422 5914 c-19 -21 -8 -44 18 -37 13 4 17 9 12 17 -5 6 -11 16 -13
23 -3 7 -8 7 -17 -3z"/>
<path d="M2610 5910 c0 -5 7 -7 15 -4 8 4 15 8 15 10 0 2 -7 4 -15 4 -8 0 -15
-4 -15 -10z"/>
<path d="M2480 5881 c0 -5 7 -11 14 -14 10 -4 13 -1 9 9 -6 15 -23 19 -23 5z"/>
<path d="M2510 5846 c0 -8 31 -36 41 -36 5 0 9 5 9 11 0 5 -5 7 -10 4 -6 -3
-13 1 -16 9 -5 14 -24 23 -24 12z"/>
<path d="M2299 5837 c-5 -26 -4 -33 4 -44 14 -20 27 -15 24 7 -3 20 -26 50
-28 37z"/>
<path d="M2375 5820 c-3 -6 1 -7 9 -4 18 7 21 14 7 14 -6 0 -13 -4 -16 -10z"/>
<path d="M3760 5793 c0 -29 -8 -45 -31 -68 -34 -33 -63 -79 -38 -59 34 27 58
23 89 -14 l31 -37 -27 48 c-29 52 -27 77 2 30 27 -41 58 -80 51 -63 -3 8 -13
32 -22 53 -9 22 -11 36 -6 32 6 -3 11 1 11 10 0 10 5 13 12 9 7 -4 8 -3 4 4
-9 15 -36 16 -36 1 0 -8 -5 -8 -15 1 -16 13 -21 60 -6 60 5 0 14 -7 21 -16 18
-20 99 -68 106 -61 3 3 -10 13 -29 22 -18 8 -49 31 -67 50 -19 19 -38 35 -42
35 -4 0 -8 -17 -8 -37z"/>
<path d="M2582 5813 c9 -2 18 -14 20 -25 2 -12 8 -23 15 -25 7 -3 9 4 6 19 -7
26 -21 38 -43 37 -11 -1 -11 -2 2 -6z"/>
<path d="M1570 5774 c0 -8 5 -12 10 -9 6 4 8 11 5 16 -9 14 -15 11 -15 -7z"/>
<path d="M2298 5763 c7 -3 16 -2 19 1 4 3 -2 6 -13 5 -11 0 -14 -3 -6 -6z"/>
<path d="M2354 5753 c4 -9 1 -20 -6 -25 -10 -7 -9 -9 2 -5 8 2 15 10 15 18 0
8 5 17 10 21 6 4 2 8 -9 8 -13 0 -16 -5 -12 -17z"/>
<path d="M2524 5746 c-8 -17 -8 -23 0 -22 20 3 36 17 36 32 0 23 -24 16 -36
-10z"/>
<path d="M2587 5725 c-9 -22 8 -26 21 -4 10 15 10 19 -2 19 -8 0 -16 -7 -19
-15z"/>
<path d="M2410 5705 l-23 -24 29 -12 c16 -6 37 -15 47 -20 12 -7 23 -4 36 8
15 15 16 22 5 41 -7 15 -14 20 -18 13 -10 -15 -22 -14 -39 3 -13 13 -17 12
-37 -9z m35 -15 c3 -6 -1 -7 -9 -4 -18 7 -21 14 -7 14 6 0 13 -4 16 -10z"/>
<path d="M2530 5690 c0 -5 10 -10 23 -10 18 0 19 2 7 10 -19 13 -30 13 -30 0z"/>
<path d="M4046 5681 c-3 -5 3 -11 15 -14 16 -4 18 -3 8 9 -13 16 -16 17 -23 5z"/>
<path d="M3350 5637 c4 -41 5 -41 8 -8 2 18 0 37 -5 42 -5 5 -6 -11 -3 -34z"/>
<path d="M3351 5574 c0 -11 3 -14 6 -6 3 7 2 16 -1 19 -3 4 -6 -2 -5 -13z"/>
<path d="M1693 5423 c-12 -13 -19 -23 -14 -23 10 0 46 39 40 43 -2 2 -14 -7
-26 -20z"/>
<path d="M1805 5239 c-4 -6 -5 -12 -2 -15 2 -3 7 2 10 11 7 17 1 20 -8 4z"/>
<path d="M3106 5213 c16 -40 16 -43 -6 -87 -12 -25 -19 -52 -17 -58 4 -9 6 -8
6 2 1 8 10 28 20 44 l19 28 26 -38 c14 -21 26 -34 26 -28 0 6 -11 28 -25 48
-14 20 -25 44 -25 53 0 9 13 -4 30 -30 36 -57 48 -62 20 -8 l-20 40 23 4 c18
4 17 5 -6 6 -18 0 -39 13 -58 33 l-29 33 16 -42z"/>
<path d="M3017 5113 c-4 -3 -6 -25 -6 -47 l2 -41 7 45 c8 48 7 54 -3 43z"/>
<path d="M1950 5040 c-23 -39 -39 -74 -36 -77 3 -4 8 -4 9 -2 12 14 76 143 73
147 -2 2 -23 -29 -46 -68z"/>
<path d="M2043 5060 c0 -25 2 -35 4 -22 2 12 2 32 0 45 -2 12 -4 2 -4 -23z"/>
<path d="M2886 5044 c-19 -28 -66 -32 -106 -9 -30 17 -40 18 -40 6 0 -16 70
-34 111 -28 35 5 38 3 29 -13 -18 -33 -10 -43 11 -16 12 15 28 25 35 22 12 -4
12 -1 4 14 -6 11 -8 24 -6 29 3 5 0 11 -8 14 -8 3 -21 -5 -30 -19z"/>
<path d="M3203 5048 c9 -7 24 -22 33 -33 8 -11 12 -13 8 -5 -11 24 -36 50 -47
50 -6 0 -3 -6 6 -12z"/>
<path d="M3251 5028 c16 -21 19 -33 11 -36 -7 -2 -12 -10 -12 -18 0 -11 5 -11
25 -2 25 11 34 28 15 28 -6 0 -15 11 -22 24 -6 14 -17 27 -25 30 -9 4 -6 -6 8
-26z"/>
<path d="M1882 4937 c-8 -10 -6 -13 9 -13 10 0 19 6 19 13 0 7 -4 13 -9 13 -5
0 -13 -6 -19 -13z"/>
<path d="M2830 4935 c-7 -9 -11 -18 -8 -20 3 -3 11 1 18 10 7 9 11 18 8 20 -3
3 -11 -1 -18 -10z"/>
<path d="M3110 4781 c0 -6 4 -13 10 -16 6 -3 7 1 4 9 -7 18 -14 21 -14 7z"/>
<path d="M1660 4735 c-20 -24 -6 -28 15 -5 10 11 13 20 8 20 -6 0 -16 -7 -23
-15z"/>
<path d="M2977 4733 c-4 -3 -6 -25 -6 -47 l2 -41 7 45 c8 48 7 54 -3 43z"/>
<path d="M1499 4583 c-13 -16 -12 -17 4 -4 9 7 17 15 17 17 0 8 -8 3 -21 -13z"/>
<path d="M2968 4545 c-6 -47 -6 -46 7 -31 6 6 8 25 5 41 -6 29 -6 29 -12 -10z"/>
<path d="M2842 4505 c9 -11 21 -36 27 -55 l11 -35 -4 36 c-2 20 1 42 7 48 9 9
8 11 -6 5 -9 -3 -25 0 -35 7 -16 13 -16 12 0 -6z"/>
<path d="M3031 4433 c7 -12 15 -20 18 -17 3 2 -3 12 -13 22 -17 16 -18 16 -5
-5z"/>
<path d="M1711 4414 c0 -11 3 -14 6 -6 3 7 2 16 -1 19 -3 4 -6 -2 -5 -13z"/>
<path d="M3076 4385 c4 -8 11 -15 16 -15 6 0 5 6 -2 15 -7 8 -14 15 -16 15 -2
0 -1 -7 2 -15z"/>
<path d="M2908 4042 c-3 -19 0 -29 9 -29 8 0 11 9 6 26 -8 36 -10 36 -15 3z"/>
<path d="M2894 3963 c-4 -16 -10 -30 -14 -33 -4 -3 -2 -10 4 -16 9 -8 15 -7
24 3 9 9 9 13 2 13 -8 0 -9 11 -5 30 8 38 -2 40 -11 3z"/>
<path d="M2960 3974 c0 -17 18 -36 30 -32 7 2 4 10 -9 22 -12 11 -21 15 -21
10z"/>
<path d="M1731 3894 c0 -11 3 -14 6 -6 3 7 2 16 -1 19 -3 4 -6 -2 -5 -13z"/>
<path d="M1580 3530 c0 -5 5 -10 11 -10 5 0 7 5 4 10 -3 6 -8 10 -11 10 -2 0
-4 -4 -4 -10z"/>
</g>
</svg>
